<?xml version="1.0" encoding="UTF-8" standalone="no"?>
<!-- Generator: Adobe Illustrator 9.0, SVG Export Plug-In  -->

<svg
   xmlns:dc="http://purl.org/dc/elements/1.1/"
   xmlns:cc="http://creativecommons.org/ns#"
   xmlns:rdf="http://www.w3.org/1999/02/22-rdf-syntax-ns#"
   xmlns:svg="http://www.w3.org/2000/svg"
   xmlns="http://www.w3.org/2000/svg"
   xmlns:sodipodi="http://sodipodi.sourceforge.net/DTD/sodipodi-0.dtd"
   xmlns:inkscape="http://www.inkscape.org/namespaces/inkscape"
   width="8"
   height="8"
   viewBox="0 0 8 8"
   xml:space="preserve"
   id="svg2"
   sodipodi:version="0.32"
   inkscape:version="0.48.4 r9939"
   sodipodi:docname="save.svg"
   version="1.0"><metadata
     id="metadata25"><rdf:RDF><cc:Work
         rdf:about=""><dc:format>image/svg+xml</dc:format><dc:type
           rdf:resource="http://purl.org/dc/dcmitype/StillImage" /></cc:Work></rdf:RDF></metadata><defs
     id="defs23" /><sodipodi:namedview
     inkscape:window-height="974"
     inkscape:window-width="1280"
     inkscape:pageshadow="2"
     inkscape:pageopacity="0.0"
     borderopacity="1.0"
     bordercolor="#666666"
     pagecolor="#ffffff"
     id="base"
     showgrid="true"
     inkscape:grid-bbox="true"
     inkscape:grid-points="true"
     inkscape:zoom="65.666668"
     inkscape:cx="3.5968081"
     inkscape:cy="3.4421458"
     inkscape:window-x="0"
     inkscape:window-y="0"
     inkscape:current-layer="svg2"
     inkscape:window-maximized="0" /><path
     style="font-size:medium;font-style:normal;font-variant:normal;font-weight:normal;font-stretch:normal;text-indent:0;text-align:start;text-decoration:none;line-height:normal;letter-spacing:normal;word-spacing:normal;text-transform:none;direction:ltr;block-progression:tb;writing-mode:lr-tb;text-anchor:start;baseline-shift:baseline;color:#000000;fill:#000000;fill-opacity:1;stroke:none;stroke-width:6;marker:none;visibility:visible;display:inline;overflow:visible;enable-background:accumulate;font-family:Sans;-inkscape-font-specification:Sans"
     d="M 0.99507313,0.50077015 A 0.55268621,0.56756174 0 0 0 0.50000791,1.0682751 l 0,5.1075444 A 0.55268621,0.56756174 0 0 0 0.66119193,6.5778024 L 1.3980332,7.3344763 a 0.55268621,0.56756174 0 0 0 0.391447,0.165522 l 5.1578888,0 A 0.55268621,0.56756174 0 0 0 7.5,6.9324934 l 0,-5.8642183 A 0.55268621,0.56756174 0 0 0 6.947369,0.50077015 l -5.8947301,0 a 0.55268621,0.56756174 0 0 0 -0.0575661,0 z m 0.42598637,0.75667295 5.1578889,0 0,2.4591887 -5.1578889,0 0,-2.4591887 z m 0.7368412,3.2158616 3.1315755,0 c 0.2026313,0 0.3684206,0.1702521 0.3684206,0.3783369 l 0,1.7025148 c 0,0.2080858 -0.1657893,0.378337 -0.3684206,0.378337 l -3.1315755,0 c -0.2026313,0 -0.3684205,-0.1702512 -0.3684205,-0.378337 l 0,-1.7025148 c 0,-0.2080848 0.1657892,-0.3783369 0.3684205,-0.3783369 z m 0.1842104,0.3783369 0,1.7025148 1.105262,0 0,-1.7025148 -1.105262,0 z"
     id="path9"
     inkscape:connector-curvature="0" /><g
     id="crop_x0020_marks"
     style="fill-rule:nonzero;stroke:#000000;stroke-miterlimit:4"
     transform="translate(0,-40)"><path
       style="fill:none;stroke:none"
       d="M 48,48 0,48 0,0 48,0 48,48 z"
       id="path20"
       inkscape:connector-curvature="0" /></g></svg>